<?xml version="1.0" encoding="utf-8"?>
<!-- Generator: Adobe Illustrator 21.0.1, SVG Export Plug-In . SVG Version: 6.00 Build 0)  -->
<svg version="1.1" id="Layer_1" xmlns="http://www.w3.org/2000/svg" xmlns:xlink="http://www.w3.org/1999/xlink" x="0px" y="0px"
	 viewBox="0 0 255 283" style="enable-background:new 0 0 255 283;" xml:space="preserve">
<style type="text/css">
	.st0{fill-rule:evenodd;clip-rule:evenodd;fill:#FFFFFF;}
</style>
<path class="st0" d="M79.2,188.5c-11,13.4,0,41.5,19.5,34.2c11-3.7,14.7-28.1,2.4-36.6C96.3,184.9,86.6,189.8,79.2,188.5z
	 M148.8,110.4c-7.3,23.2-17.1,45.2-24.4,69.6c13.4-12.2,20.8-41.5,26.9-64.7C148.8,116.5,148.8,112.8,148.8,110.4z M155,95.7
	c-4.9,4.9-6.1,9.8-2.4,17.1C157.4,109.2,157.4,103,155,95.7z M162.3,79.8c-4.9,2.4-4.9,8.5-3.7,14.7
	C163.5,89.6,162.3,87.2,162.3,79.8z M168.4,65.2c-4.9,2.4-4.9,7.3-3.7,14.7C168.4,76.2,170.8,72.5,168.4,65.2z M91.4,158
	c7.3,8.5,18.3,11,26.9,15.9c23.2-37.9,26.9-90.4,53.7-125.8c-9.8-11-25.6-12.2-36.6-22c-2.4,0-2.4,2.4-4.9,2.4
	C120.8,76.2,103.7,115.3,91.4,158z M67,199.5c3.7-14.7,29.3-19.5,39.1-15.9c-3.7-2.4-8.5-3.7-13.4-4.9c-11-20.8-1.2-34.2,4.9-53.7
	c11-35.4,24.4-69.6,29.3-105c20.8,6.1,39.1,14.7,53.7,28.1c-4.9,2.4-1.2,11-1.2,18.3c-24.4,35.4-28.1,87.9-53.7,124.6
	c-8.5,0-11-7.3-20.8-6.1C140.3,224,63.3,267.9,67,199.5z M84.1,75c-9.8,24.4-19.5,57.4-20.8,83.1c9.8-25.6,12.2-55,24.4-78.2
	C89,76.2,85.3,78.6,84.1,75z M89,56.6c-3.7,3.7-4.9,8.5-4.9,15.9c2.4-1.2,3.7,1.2,3.7,2.4C89,68.8,96.3,60.3,89,56.6z M93.9,42
	c-3.7,2.4-2.4,8.5-1.2,14.7C96.3,54.2,98.8,45.6,93.9,42z M26.7,136c7.3,6.1,20.8,13.4,28.1,12.2c18.3-39.1,24.4-85.5,39.1-127
	c-11-2.4-22-6.1-30.5-12.2C46.2,46.9,41.4,94.5,26.7,136z M21.8,139.7c-1.2-7.3,6.1-22,9.8-33C41.4,72.5,48.7,29.8,58.5,4.1
	c15.9,2.4,26.9,11,42.7,12.2c0,8.5,2.4,14.7,4.9,20.8c-15.9,41.5-23.2,91.6-41.5,130.7C48.7,155.6,25.5,159.2,21.8,139.7z
	 M197.7,193.4c-6.1,6.1-8.5,13.4-13.4,19.5c1.2,1.2,4.9,1.2,3.7,4.9C194,210.5,201.4,202,197.7,193.4z M208.7,167.8
	c-4.9,6.1-9.8,12.2-7.3,24.4C206.3,186.1,213.6,177.6,208.7,167.8z M217.2,149.5c-4.9,3.7-6.1,9.8-4.9,18.3
	C222.1,162.9,217.2,156.8,217.2,149.5z M224.6,129.9c-6.1,3.7-6.1,12.2-3.7,22C224.6,144.6,229.5,140.9,224.6,129.9z M234.3,105.5
	c-3.7,7.3-8.5,14.7-4.9,28.1C235.6,127.5,236.8,118.9,234.3,105.5z M239.2,92.1c-6.1,4.9-2.4,8.5-1.2,18.3
	C245.3,106.7,240.5,96.9,239.2,92.1z M152.5,191c6.1,11,17.1,12.2,25.6,19.5c25.6-36.6,39.1-84.3,57.4-125.8
	c-8.5-11-19.5-18.3-33-22C189.2,106.7,169.6,148.2,152.5,191z M202.6,54.2c17.1,11,35.4,20.8,48.9,37.9
	c-18.3,47.6-37.9,95.3-64.7,138c-15.9-9.8-36.6-14.7-41.5-39.1C169.6,149.5,180.6,98.2,202.6,54.2z M10.8,194.7
	c-3.7,3.7,2.4,8.5,3.7,12.2C19.4,203.2,10.8,199.5,10.8,194.7z M27.9,169c-14.7,1.2-18.3,8.5-14.7,22c6.1,22,46.4,15.9,34.2-13.4
	C43.8,170.2,36.5,169,27.9,169z M34,219.1c-31.8,7.3-39.1-52.5-6.1-55C65.8,161.7,54.8,214.2,34,219.1z M133,227.6
	c-7.3,17.1,6.1,36.6,20.8,34.2C185.5,256.9,159.8,202,133,227.6z M131.7,269.2c-24.4-28.1,11-72.1,39.1-42.7
	C189.2,263,151.3,291.1,131.7,269.2z"/>
</svg>
