<svg id="arrow-split" xmlns="http://www.w3.org/2000/svg" viewBox="0 0 237 243" >
<path d="M55.7,204.9c0-4.7-1.9-7.5-1.9-12.1c-0.9-5.6,0.9-11.2-0.9-15.8c-12.1,7.5-26.1,13-36.3,22.4
  c5.6,5.6,12.1,9.3,18.6,14c5.6,4.7,12.1,10.2,19.6,13C53.8,217.9,54.7,209.5,55.7,204.9z M66.9,195.6c-3.7,1.9-4.7,0-8.4,0
  c0,2.8-0.9,9.3,1.9,10.2c1.9-1.9,0-7.5,2.8-9.3c0.9,2.8,0,5.6,0,9.3c0.9,0.9,4.7,0.9,5.6,0C67.8,203,69.7,197.4,66.9,195.6z
   M79,195.6c-1.9-0.9-6.5-0.9-7.5,0c-0.9,3.7,0,7.5,0.9,10.2c1.9,0.9,5.6,0.9,8.4,0C80.8,203,79.9,198.4,79,195.6z M90.1,196.5
  c-2.8-0.9-6.5-1.9-8.4,0c0,3.7,0,8.4,1.9,10.2c1.9,0.9,5.6,0.9,7.5,0C92,204,91.1,199.3,90.1,196.5z M102.3,196.5
  c-1.9-0.9-6.5-0.9-8.4,0c-1.9,2.8-0.9,8.4,0,10.2c1.9,0,5.6,0.9,7.5,0C103.2,204,102.3,199.3,102.3,196.5z M112.5,195.6
  c-1.9-0.9-5.6-0.9-7.5,0c0,3.7,0,7.5,0.9,10.2c1.9,0.9,3.7,0,6.5,0C114.4,204.9,113.4,198.4,112.5,195.6z M121.8,191.8
  c-2.8,0-5.6,0-6.5,1.9c0,4.7,0,9.3,0.9,13c1.9,0.9,4.7,0.9,5.6,0C122.8,202.1,123.7,195.6,121.8,191.8z M126.5,14.8
  c-3.7,0.9-7.5,0-10.2,0.9c-0.9,39.1,0,133.2,0.9,173.3c3.7,0.9,7.5-0.9,9.3-1.9c0.9-38.2,0-133.2,0.9-171.4
  C127.4,15.8,127.4,14.8,126.5,14.8z M125.6,193.7c-0.9,3.7-0.9,10.2,0.9,13c1.9,0,2.8,0,3.7,0C131.1,202.1,133,190,125.6,193.7z
   M137.7,191.8c-1.9-0.9-3.7,0-4.7,0c0,3.7-0.9,12.1,1.9,14.9C141.4,205.8,139.5,195.6,137.7,191.8z M146,191.8c-1.9,0-2.8-0.9-4.7,0
  c0,4.7-0.9,11.2,0,14c0.9,0.9,3.7,0,4.7,0C147.9,203,148.8,194.6,146,191.8z M157.2,192.8c-1.9-0.9-3.7-0.9-5.6-0.9
  c-1.9,2.8-1.9,9.3-0.9,13c0.9,1.9,4.7,0.9,6.5,0.9C159.1,202.1,157.2,196.5,157.2,192.8z M166.5,192.8c-1.9-0.9-4.7-0.9-5.6,0
  c-0.9,2.8-0.9,9.3,0,12.1c0.9,0.9,3.7,0.9,4.7,0C167.5,202.1,167.5,196.5,166.5,192.8z M174.9,192.8c-1.9-0.9-4.7-0.9-5.6,0
  c0,3.7-1.9,10.2,0,12.1c2.8,0,4.7,0,5.6-0.9C176.8,200.2,176.8,195.6,174.9,192.8z M201,210.5c7.5-3.7,14-8.4,20.5-12.1v-0.9
  c-6.5-3.7-14.9-6.5-23.3-9.3c-6.5-3.7-13-7.5-19.6-11.2c-0.9,3.7,0,8.4,0.9,12.1c-1.9,5.6-0.9,14-0.9,22.4c0,4.7,0,9.3,1.9,12.1
  C188,219.8,194.5,215.1,201,210.5z M174.9,230c-2.8-3.7-0.9-14-2.8-18.6c-37.3-0.9-75.5-0.9-111.8,0c-1.9,6.5,0.9,17.7-0.9,23.3
  c-4.7-0.9-9.3-4.7-14-8.4c-8.4-6.5-15.8-13-25.2-19.6c-2.8-1.9-12.1-6.5-12.1-10.2c0-2.8,9.3-6.5,11.2-7.5c3.7-2.8,8.4-5.6,11.2-7.5
  c8.4-5.6,14.9-9.3,24.2-13c2.8,4.7,2.8,12.1,4.7,18.6c14.9,2.8,38.2,2.8,52.2,0c0-40.1-0.9-133.2-0.9-175.2c3.7-3.7,14-4.7,20.5-2.8
  c0.9,15.8,0,89.4-0.9,107.1c-0.9,22.4,2.8,46.6,2.8,69.9c13,0.9,28,0.9,40.1,0.9c2.8-3.7-0.9-13,1.9-16.8c3.7-0.9,5.6,2.8,8.4,4.7
  c1.9,0.9,4.7,0.9,6.5,1.9c5.6,1.9,11.2,5.6,16.8,8.4c8.4,3.7,17.7,4.7,21.4,10.2c3.7,3.7-6.5,11.2-10.2,13c-4.7,2.8-9.3,4.7-14,7.5
  C192.6,220.7,185.2,227.2,174.9,230z M124.6,153.6c0,0.9,0,1.9,0,1.9c-0.9,0-0.9,0-0.9,0c-0.9,0-0.9-0.9-1.9-0.9
  C121.8,154.6,122.8,153.6,124.6,153.6C123.7,153.6,123.7,153.6,124.6,153.6z M120.9,168.6c0-1.9,0-2.8,1.9-2.8
  C123.7,167.6,122.8,169.5,120.9,168.6z M122.8,179.7c-0.9,0-1.9,0-1.9,0c0-0.9,0-0.9,0-0.9c0-0.9,0.9-1.9,2.8-1.9
  C122.8,177.9,122.8,178.8,122.8,179.7z M121.8,122.9c0.9,1.9-1.9,2.8-2.8,0.9C119,122,120.9,122.9,121.8,122.9z M121.8,144.3
  c0.9,0,0,1.9,0,1.9C118.1,148.1,119,142.5,121.8,144.3z M121.8,133.1c0,0.9,0,0.9,0,1.9c-0.9,0.9-2.8,0-2.8,0v-0.9
  C119,133.1,120.9,132.2,121.8,133.1z"/>
</svg>