<svg class="mds-arrow" xmlns="http://www.w3.org/2000/svg" viewBox="0 0 237 63">
<path class="mds_orange" d="M226.6,23.5c-2.3,0.3-0.3,3.3,0.3,4.8C227.1,26.6,226.6,25,226.6,23.5z M223.5,23.5c-0.5,1.8,0,3.6,0.8,5.3
	C226.3,26,223.8,25.8,223.5,23.5z M219.5,24c-0.5,1.5,1,3,0,4.6c1.3,0.5,2.3-0.3,3.3,0.3C223,26.6,222.5,23.3,219.5,24z M216.9,24.3
	c-0.5,1.5-0.3,4.6,1,4.8C220,28.8,219.5,24.3,216.9,24.3z M213.4,24.5c0,2.3-0.5,5.6,2.5,4.8c0.3-1.5,0.3-3-0.3-4.3
	C214.9,23.8,214.1,25,213.4,24.5z M209.8,24.8c-1.3,2.3,0,6.6,3,4.1c-0.5-1.5,0-3-1.5-4.3C210.8,25.3,210.3,25,209.8,24.8z
	 M205.5,24.8c0,1.8-0.5,3.6,0.8,5.3c1-0.8,2,0.5,2.8-0.8c-0.8-1.5-0.3-3-1.3-4.6C207.3,26,206.3,24.8,205.5,24.8z M201.5,30.6
	c1.3-1,2.5,0.3,3.6-1c0-1.5-0.5-2.8-0.3-4.3C200.7,23,199.7,27.8,201.5,30.6z M194.6,25.8c-3.3-1.3-6.3,0.5-9.6-0.5
	c-1.3,2.3,0.8,4.3,0,6.6C189.3,31.1,198.1,32.6,194.6,25.8z M195.9,30.9c1.3-0.3,2.5,0,3.8-0.5c1.3-1.5-0.3-3,0-4.6
	c-1.5-1-2.8-0.3-4.3-0.5C195.4,27.1,196.4,28.8,195.9,30.9z M180.4,25.5c-0.5,2,1,4.1-0.3,6.3c1.5,0.8,3,0.8,4.3-0.3
	c-1-2-0.3-4.3-1.8-6.3C182.2,25.5,181.4,25.8,180.4,25.5z M162.6,38.5c-0.3,2.5,0.5,5.1,1.8,7.6C165.6,43.6,163.9,41,162.6,38.5z
	 M173,25.5c-1.5,2.5,1.3,4.8,0.5,7.1c1.3,0.5,3-0.5,2.3-2c1.3,0.3,1.3,2.5,3.6,1.8c0.3-3,1-9.1-3.8-6.1c0.5,1.3,1,2.3,1,3.6
	C174.3,29.9,176.3,25.8,173,25.5z M158.8,40.3c-1,2.3,2,4.1,0.5,6.3c1,0.3,2,0,3-1.3C161.8,43.6,161.3,40.5,158.8,40.3z M163.1,34.7
	c-1,2.5,1.8,4.8,1.5,7.4C166.9,40.8,164.4,36.7,163.1,34.7z M169.5,26c0,2.3,1,4.6,1.8,6.9c0.5-0.8,1.5,0.5,2-0.8
	C171.5,29.9,173.3,25.3,169.5,26z M164.1,30.1c-1.8,3,1.8,5.6,1.5,8.6C168.2,37,165.1,32.6,164.1,30.1z M165.9,26.3
	c-0.3,2.5,1.5,5.6,4.1,6.9c-0.3-2.5-0.8-5.1-2.3-7.4C167.2,26.8,166.4,27.1,165.9,26.3z M154.2,46.1c1.5,1,2.8,0,4.1,0.8
	c1.5-2.3-1.3-4.3-0.8-6.6C152.4,38.7,152.2,42.3,154.2,46.1z M148.6,40c-0.8,3,1,6.9,4.6,6.9c0.5-2-1.3-3.8-1.5-5.8
	C150.4,40,149.4,40.5,148.6,40z M142.8,40.5c-0.3,2,1.8,3.8,1.5,5.8c1.5,0.3,3.3,0.8,4.8-0.3c-1.8-1.8-1-4.1-2.8-5.8
	C145.1,40,143.8,41,142.8,40.5z M137,40c0,2.3,1.5,4.3,1.8,6.3c1.5,0.5,2.8-0.3,4.3,0.5C143.1,43.3,141,39.5,137,40z M129.3,40
	c0,2.3,0.8,4.3,1.8,6.3c2.3-1,4.8,0.8,7.1-0.5c-1.8-1.5-1.5-3.3-2.5-4.8C133.4,39.8,131.4,41,129.3,40z M125.5,45.6
	c1.3,1.3,2.3-0.3,3.6,0.5c0.8-2-1-3.6-1.3-5.3C123.8,38.5,124.3,43.3,125.5,45.6z M117.9,40.5c1.3,4.1,1.8,7.1,6.6,4.6
	c-0.8-1.5-1-3-1.3-4.6C121.5,40,119.7,39.8,117.9,40.5z M112.1,39.5c-0.5,2,1,3.8,0.8,5.8c2,0.8,4.1,0.5,6.1,0c-1.3-1.5-1-3.3-2-5.1
	C115.4,39.2,113.9,40,112.1,39.5z M99.6,39.2c0.8,1.8,1.8,3.8,1.8,5.6c1.5,1.3,2.8-0.3,4.3,0.5c0.3-2-1.8-3.8-1.5-5.8
	c2,0.5,2,4.1,2.5,5.6c1.8,1.3,3.6,0.5,5.3,0.8c0-2-0.8-3.8-1.5-5.8C106.7,39.2,103.2,38.7,99.6,39.2z M80.8,47.1
	c-2.8,1,1.8,4.6,1.8,6.3C84.6,52.5,81.1,48.9,80.8,47.1z M88,38.5c0,2.3,2.3,4.3,1.8,6.3c1.5,0.5,3.3,1,4.8-0.3
	c-1.5-1.5-1.3-3.3-2.5-4.8c2.3-0.8,2.5,3.6,2.8,5.1c1.8,1,3.6,0,5.3,0.8c0.5-2.3-1.3-4.3-1.8-6.3C94.8,38.2,91.5,39.5,88,38.5z
	 M80.6,44.3c-0.5,2.3,1.8,3.3,3.3,6.1C84.1,48.4,82.6,46.4,80.6,44.3z M81.9,40.8c-3,1,1.8,4.8,2.5,6.9
	C85.7,44.6,82.6,43.1,81.9,40.8z M82.9,39c-0.5,2.3,2.5,4.3,3.6,6.6c0.5-0.5,1.3-0.5,2-0.3c0.8-2.3-2-4.3-1.8-6.3
	C85.4,39.2,84.1,39.2,82.9,39z M69.2,46.9c-0.3,3.8,2.8,6.1,6.3,6.3c0.8-1.5-1.3-3-1.3-4.6C72.7,47.9,70.9,48.4,69.2,46.9z
	 M62.6,45.3c0.3,3.8,3.3,7.1,7.1,6.3c0-1.5-2-3-1.8-4.8C66.1,45.8,64.3,46.4,62.6,45.3z M56.5,44.1c-1,2,1.8,3.8,1.8,5.6
	c1.5,0.5,2.8,0.3,4.3,1.3c1.8-2-2-3.6-0.8-5.3C60,44.6,58.2,45.1,56.5,44.1z M78.6,13.1c-1,1.5,1,4.1,2.5,4.3
	C81.3,15.9,79.1,14.4,78.6,13.1z M78.6,9.8c0,2,1.3,3.8,2.8,5.8C81.3,13.6,79.8,11.8,78.6,9.8z M43.5,40.8c1.5,3.3,3,6.9,7.1,6.9
	c0.5-1.8-3-3-2-4.6c2.3,1.5,4.3,7.9,8.4,5.6c-2-1.5-1.8-3.3-2.8-5.1C50.6,42.8,47.1,42,43.5,40.8z M38.7,39.8
	c0.3,2.3,3.6,7.6,6.6,5.8c-1.8-1.5-2.8-3-2.5-4.8C41.2,40,40,40.8,38.7,39.8z M34.6,38.7c0.5,2.5,1.5,5.6,4.8,5.6
	C38.4,42.3,37.2,38.7,34.6,38.7z M29.6,36.7c0.5,2.3,2.5,6.1,5.3,6.1c0.8-1.3-2.8-2.5-1-4.1C32.3,37.7,30.8,37.7,29.6,36.7z
	 M26.5,36.5c-0.3,1.8,1,5.6,3.8,5.3C30.1,39.8,28,37.2,26.5,36.5z M20.9,34.7c0.5,2.3,2.8,6.3,5.6,6.3
	C26.2,37.5,24.2,35.4,20.9,34.7z M75.8,48.9c0.5-1.5,1-1.3,2.5-0.5c1-3.3,1-6.6,1.5-9.9c26.9-2,54.1,2.5,81,0.3
	c1.3-4.1,1-8.1,2.3-12.4c19.8-3.8,40.1-1,59.9-3.8c-23.4-6.6-49.5-8.4-73.6-9.9c-1.5,2.3-1.3,4.6-2.3,7.1c-23.6,1-47.2-1.8-70.8-1.3
	c-0.5-2.8,1-5.8,1.3-8.9C58,15.6,38.4,23.8,18.9,32.9c18.8,5.8,37.3,9.6,56.1,14.2c1.5,3.8,2,7.1,6.9,7.4
	C81.9,51.7,78.8,48.9,75.8,48.9z M22.9,41.3c-1.3-3.6-6.3-7.1-5.6-9.6C37.4,23.3,59.5,14.1,78.6,7c2.5,2,4.3,6.9,5.6,10.2
	c20.6,0.3,41.4,1.8,62.2,1.8c-0.3-2.5,1-5.3,2-8.1c26.2,2.8,52.6,4.1,79.2,10.7c-0.3,2.8,0.8,5.3,0.8,8.1
	c-19.8,1.3-39.6,3.6-59.4,4.8c-1.5,4.3-2,8.6-3.6,12.9c-26.7,1.8-53.8-1.5-79.5-0.5c-0.8,3.3-1.3,6.6-1.5,9.9
	C63.8,51.9,43.5,47.4,22.9,41.3z"/>
</svg>
