<svg id="arrow-split-b" xmlns="http://www.w3.org/2000/svg" viewBox="0 0 57 113">
<path class="mds_green" d="M30,75.3c-2.5,0-4,1-6.5,1c-3,0.5-6-0.5-8.5,0.5c4,6.5,7,13.9,11.9,19.4c3-3,5-6.5,7.5-10c2.5-3,5.5-6.5,7-10.4
	C37,76.3,32.5,75.3,30,75.3z M25,69.4c1,2,0,2.5,0,4.5c1.5,0,5,0.5,5.5-1c-1-1,1-4,0-4.5C29,68.9,26,67.9,25,69.4z M25,62.9
	c-0.5,1-0.5,3.5,0,4c2,0.5,4,0,5.5-0.5c0.5-1,0.5-3,0-4.5C29,61.9,26.5,62.4,25,62.9z M23,56.9c0,1-0.5,1.5,0,2.5c2.5,0,6,0.5,7.5,0
	c0.5-0.5,0-2,0-2.5C29,55.9,24.5,55.4,23,56.9z M23.5,51C23,52,23,53,23,54c1.5,1,5,1,7,0.5c1-0.5,0.5-2.5,0.5-3.5
	C28.5,50,25.5,51,23.5,51z M23.5,46c-0.5,1-0.5,2.5,0,3c1.5,0.5,5,0.5,6.5,0c0.5-0.5,0.5-2,0-2.5C28.5,45.5,25.5,45.5,23.5,46z
	 M23.5,41.5c-0.5,1-0.5,2.5,0,3c2,0,5.5,1,6.5,0c0-1.5,0-2.5-0.5-3C27.5,40.5,25,40.5,23.5,41.5z M33,27.6c-2-4-4.5-7.5-6.5-10.9H26
	c-2,3.5-3.5,8-5,12.4c-2,3.5-4,7-6,10.4c2,0.5,4.5,0,6.5-0.5c3,1,7.5,0.5,11.9,0.5c2.5,0,5,0,6.5-1C38,34.5,35.5,31.1,33,27.6z
	 M20.5,42.5c-2-1.5-7,0.5-9-1c-0.5-2,1.5-3,2.5-4.5c0.5-1,0.5-2.5,1-3.5c1-3,3-6,4.5-9c2-4.5,2.5-9.5,5.5-11.4c2-2,6,3.5,7,5.5
	c1.5,2.5,2.5,5,4,7.5c3,6,6,10,8,15.4c-2,1.5-7.5,0.5-10,1.5c-0.5,19.9-0.5,10.4,0,29.9c3,1,9-0.5,11.9,0.5c-0.5,2.5-2.5,5-4.5,7.5
	c-3.5,4.5-7,8.5-10.4,13.4c-1,1.5-3.5,6.5-5.5,6.5c-1.5,0-3.5-5-4-6c-1.5-2-3-4.5-4-6c-3-4.5-5-8-7-12.9c2.5-1.5,6.5-1.5,10-2.5
	C21.5,65.4,20.5,49,20.5,42.5z M27.5,26.6c-2,2-3.5,4.5-4,7.5c2,1,5.5,0,8,0C30.5,31.1,29,28.6,27.5,26.6z M34,35.5
	c-1.5,1-2.5,0-4.5,0c-3,0-6.5,1.5-9,0.5c1-5,4-8.5,5.5-12.4h0.5C29.5,27.1,32,31.1,34,35.5z M27,31.6c0.5,0,1,0,1,0c0,0.5,0,0.5,0,1
	C27,33.1,26.5,32.6,27,31.6z M23.5,80.8c0.5,2.5,1,5.5,2.5,5.5s5-4.5,5.5-5.5C30,79.8,25.5,79.8,23.5,80.8z M36,79.8
	c0,1.5-1.5,2-2.5,2.5c-2.5,2-5,5-7.5,7.5c-2-2-4.5-6.5-4-10C26,78.3,32,78.8,36,79.8z M28,82.8c0,0.5-0.5,1-1,1
	C26,82.8,27,82.3,28,82.8z"/>
</svg>
