<?xml version="1.0" encoding="utf-8"?>
<!-- Generator: Adobe Illustrator 21.0.1, SVG Export Plug-In . SVG Version: 6.00 Build 0)  -->
<svg version="1.1" id="Layer_1" xmlns="http://www.w3.org/2000/svg" xmlns:xlink="http://www.w3.org/1999/xlink" x="0px" y="0px"
	 viewBox="0 0 179 71" style="enable-background:new 0 0 179 71;" xml:space="preserve">
<style type="text/css">
	.st0{fill:none;}
</style>
<path class="st0" d="M166.1,25.8c-13.5-0.5-27.4-0.4-40.9-0.8c-5.9-0.4-11.5,0.4-17.4,0c-2.2,0.1-4.5-0.3-7.2-0.1
	c-7.9,0.5-15.2-0.1-23.3-0.4c-2.2,0.1-5-0.2-7-1.1c0.3-4.5,1.9-11.2,1.1-16.4C59.9,11,49.9,16.4,40,21.8c-0.5,1.9,1.8,4,0.4,5.7
	c-2-0.9-1-4.2-2-4.9c-4.2,1-8.4,2.4-12,4.1c-0.5,1.9,0.7,4.8-0.9,5.6c-1-0.7,0.1-3.6-0.8-5.2c-4.3,0.6-7,2.5-10.8,3.4
	c0,1.8,1.9,2.3,2.5,3c11.9,10.7,27.8,17.7,42,27c2.1,1.3,4,3.6,6.7,3.8c1.2-6.5,2.3-13.1,2.5-20.2c1.1-1.1,2.8-1.5,4.5-1.9
	c0.8,1.6-1.9,1.3-2.1,2.7c17.4,1.8,35.2,3.5,53.7,4.1c0.5-1.9,3.4-2.6,5.7-2.2c0,1.8-3.5,0.4-4,2.3c5.3,1.5,11.3,0.5,16.8,1
	c8.1,0.4,16.1,2.1,23.7,2.1C165.7,43.3,166.8,34.6,166.1,25.8z M132.4,23.3c6.8,0.2,13.5,0.5,19.8,0.8c4.5,0.3,8.4-0.6,12.4-0.6
	c2.7,0.3,4.5,0.3,4.2,2.6c-1.4,9.3-0.1,18.8-1,28.4c-12.3-1.2-24.8-2.8-37.9-3.3c-6.3-0.3-12.8-1.1-19.1-1.4
	c-6.8-0.2-13-0.1-19.4-0.9c-7.3-0.6-15.1-3.2-22.3-1.6c-0.7,4.6-1.7,10.2-1.9,15.2c-0.1,1.4,0.4,3.5-1.1,4.7
	c-3.2-0.2-5.5-2.3-7.5-3.6c-2.5-1.2-4.4-3.5-6.9-4.7C40.1,51.3,27,45,16.9,36.1c-1.7-1.4-6.2-3.5-6.2-5.7c0-1.8,5.1-3,7.7-3.6
	c9.3-2.2,17.1-5.3,24.3-9.2c5.2-2.5,10.1-4.6,14.9-7s9.6-4.9,15.5-6.3c1.2,5.1-0.8,11.8-0.4,17.5C90.2,24.1,112.9,22,132.4,23.3z"/>
</svg>
