<svg class="mds-arrow" xmlns="http://www.w3.org/2000/svg" xmlns:xlink="http://www.w3.org/1999/xlink" x="0px" y="0px"
	 viewBox="0 0 237 63" style="enable-background:new 0 0 237 63;" xml:space="preserve">
<path class="mds-orange" d="M18.8,28.3c0.5-1.5,2.5-4.6,0.3-4.8C19.1,25,18.6,26.6,18.8,28.3z M21.3,28.8c0.8-1.8,1.3-3.6,0.8-5.3
	C21.9,25.8,19.3,26,21.3,28.8z M22.9,28.8c1-0.5,2,0.3,3.3-0.3c-1-1.5,0.5-3,0-4.6C23.1,23.3,22.6,26.6,22.9,28.8z M27.7,29.1
	c1.3-0.3,1.5-3.3,1-4.8C26.2,24.3,25.7,28.8,27.7,29.1z M30,25c-0.5,1.3-0.5,2.8-0.3,4.3c3,0.8,2.5-2.5,2.5-4.8
	C31.5,25,30.7,23.8,30,25z M34.3,24.5c-1.5,1.3-1,2.8-1.5,4.3c3,2.5,4.3-1.8,3-4.1C35.3,25,34.8,25.3,34.3,24.5z M37.9,24.8
	c-1,1.5-0.5,3-1.3,4.6c0.8,1.3,1.8,0,2.8,0.8c1.3-1.8,0.8-3.6,0.8-5.3C39.4,24.8,38.4,26,37.9,24.8z M40.9,25.3
	c0.3,1.5-0.3,2.8-0.3,4.3c1,1.3,2.3,0,3.6,1C46,27.8,45,23,40.9,25.3z M60.7,31.9c-0.8-2.3,1.3-4.3,0-6.6c-3.3,1-6.3-0.8-9.6,0.5
	C47.5,32.6,56.4,31.1,60.7,31.9z M50.3,25.3c-1.5,0.3-2.8-0.5-4.3,0.5c0.3,1.5-1.3,3,0,4.6c1.3,0.5,2.5,0.3,3.8,0.5
	C49.3,28.8,50.3,27.1,50.3,25.3z M63,25.3c-1.5,2-0.8,4.3-1.8,6.3c1.3,1,2.8,1,4.3,0.3c-1.3-2.3,0.3-4.3-0.3-6.3
	C64.3,25.8,63.5,25.5,63,25.3z M81.3,46.1c1.3-2.5,2-5.1,1.8-7.6C81.8,41,80,43.6,81.3,46.1z M69.1,29.9c0-1.3,0.5-2.3,1-3.6
	c-4.8-3-4.1,3-3.8,6.1c2.3,0.8,2.3-1.5,3.6-1.8c-0.8,1.5,1,2.5,2.3,2c-0.8-2.3,2-4.6,0.5-7.1C69.3,25.8,71.4,29.9,69.1,29.9z
	 M83.3,45.3c1,1.3,2,1.5,3,1.3c-1.5-2.3,1.5-4.1,0.5-6.3C84.3,40.5,83.8,43.6,83.3,45.3z M81,42c-0.3-2.5,2.5-4.8,1.5-7.4
	C81.3,36.7,78.7,40.8,81,42z M72.4,32.1c0.5,1.3,1.5,0,2,0.8c0.8-2.3,1.8-4.6,1.8-6.9C72.4,25.3,74.2,29.9,72.4,32.1z M80,38.7
	c-0.3-3,3.3-5.6,1.5-8.6C80.5,32.6,77.5,37,80,38.7z M78,25.8c-1.5,2.3-2,4.8-2.3,7.4c2.5-1.3,4.3-4.3,4.1-6.9
	C79.2,27.1,78.5,26.8,78,25.8z M88.1,40.3c0.5,2.3-2.3,4.3-0.8,6.6c1.3-0.8,2.5,0.3,4.1-0.8C93.5,42.3,93.2,38.7,88.1,40.3z M94,41
	c-0.3,2-2,3.8-1.5,5.8c3.6,0,5.3-3.8,4.6-6.9C96.3,40.5,95.2,40,94,41z M99.3,40.3c-1.8,1.8-1,4.1-2.8,5.8c1.5,1,3.3,0.5,4.8,0.3
	c-0.3-2,1.8-3.8,1.5-5.8C101.8,41,100.6,40,99.3,40.3z M102.6,46.9c1.5-0.8,2.8,0,4.3-0.5c0.3-2,1.8-4.1,1.8-6.3
	C104.6,39.5,102.6,43.3,102.6,46.9z M110,41c-1,1.5-0.8,3.3-2.5,4.8c2.3,1.3,4.8-0.5,7.1,0.5c1-2,1.8-4.1,1.8-6.3
	C114.3,41,112.2,39.8,110,41z M117.8,40.8c-0.3,1.8-2,3.3-1.3,5.3c1.3-0.8,2.3,0.8,3.6-0.5C121.4,43.3,121.9,38.5,117.8,40.8z
	 M122.4,40.5c-0.3,1.5-0.5,3-1.3,4.6c4.8,2.5,5.3-0.5,6.6-4.6C126,39.8,124.2,40,122.4,40.5z M128.8,40.3c-1,1.8-0.8,3.6-2,5.1
	c2,0.5,4.1,0.8,6.1,0c-0.3-2,1.3-3.8,0.8-5.8C131.8,40,130.3,39.2,128.8,40.3z M135.1,40c-0.8,2-1.5,3.8-1.5,5.8
	c1.8-0.3,3.6,0.5,5.3-0.8c0.5-1.5,0.5-5.1,2.5-5.6c0.3,2-1.8,3.8-1.5,5.8c1.5-0.8,2.8,0.8,4.3-0.5c0-1.8,1-3.8,1.8-5.6
	C142.5,38.7,138.9,39.2,135.1,40z M163,53.5c0-1.8,4.6-5.3,1.8-6.3C164.6,48.9,161,52.5,163,53.5z M147.3,39.2
	c-0.5,2-2.3,4.1-1.8,6.3c1.8-0.8,3.6,0.3,5.3-0.8c0.3-1.5,0.5-5.8,2.8-5.1c-1.3,1.5-1,3.3-2.5,4.8c1.5,1.3,3.3,0.8,4.8,0.3
	c-0.5-2,1.8-4.1,1.8-6.3C154.1,39.5,150.8,38.2,147.3,39.2z M161.8,50.4c1.5-2.8,3.8-3.8,3.3-6.1C163,46.4,161.5,48.4,161.8,50.4z
	 M161.3,47.6c0.8-2,5.6-5.8,2.5-6.9C163,43.1,160,44.6,161.3,47.6z M159,39c0.3,2-2.5,4.1-1.8,6.3c0.8-0.3,1.5-0.3,2,0.3
	c1-2.3,4.1-4.3,3.6-6.6C161.5,39.2,160.2,39.2,159,39z M171.4,48.6c0,1.5-2,3-1.3,4.6c3.6-0.3,6.6-2.5,6.3-6.3
	C174.7,48.4,172.9,47.9,171.4,48.6z M177.8,46.9c0.3,1.8-1.8,3.3-1.8,4.8c3.8,0.8,6.9-2.5,7.1-6.3C181.3,46.4,179.5,45.8,177.8,46.9
	z M183.9,45.6c1.3,1.8-2.5,3.3-0.8,5.3c1.5-1,2.8-0.8,4.3-1.3c0-1.8,2.8-3.6,1.8-5.6C187.4,45.1,185.6,44.6,183.9,45.6z M164.6,17.4
	c1.5-0.3,3.6-2.8,2.5-4.3C166.6,14.4,164.3,15.9,164.6,17.4z M164.3,15.6c1.5-2,2.8-3.8,2.8-5.8C165.8,11.8,164.3,13.6,164.3,15.6z
	 M191.5,43.6c-1,1.8-0.8,3.6-2.8,5.1c4.1,2.3,6.1-4.1,8.4-5.6c1,1.5-2.5,2.8-2,4.6c4.1,0,5.6-3.6,7.1-6.9
	C198.6,42,195,42.8,191.5,43.6z M202.9,40.8c0.3,1.8-0.8,3.3-2.5,4.8c3,1.8,6.3-3.6,6.6-5.8C205.7,40.8,204.4,40,202.9,40.8z
	 M206.2,44.3c3.3,0,4.3-3,4.8-5.6C208.5,38.7,207.2,42.3,206.2,44.3z M211.8,38.7c1.8,1.5-1.8,2.8-1,4.1c2.8,0,4.8-3.8,5.3-6.1
	C214.8,37.7,213.3,37.7,211.8,38.7z M215.3,41.8c2.8,0.3,4.1-3.6,3.8-5.3C217.6,37.2,215.6,39.8,215.3,41.8z M219.1,41
	c2.8,0,5.1-4.1,5.6-6.3C221.4,35.4,219.4,37.5,219.1,41z M163.8,54.5c4.8-0.3,5.3-3.6,6.9-7.4c18.8-4.6,37.3-8.4,56.1-14.2
	c-19.6-9.1-39.1-17.3-58.7-23.4c0.3,3,1.8,6.1,1.3,8.9c-23.6-0.5-47.2,2.3-70.8,1.3c-1-2.5-0.8-4.8-2.3-7.1
	c-24.1,1.5-50.3,3.3-73.6,9.9c19.8,2.8,40.1,0,59.9,3.8c1.3,4.3,1,8.4,2.3,12.4c26.9,2.3,54.1-2.3,81-0.3c0.5,3.3,0.5,6.6,1.5,9.9
	c1.5-0.8,2-1,2.5,0.5C166.8,48.9,163.8,51.7,163.8,54.5z M161.3,56.8c-0.3-3.3-0.8-6.6-1.5-9.9c-25.6-1-52.8,2.3-79.5,0.5
	c-1.5-4.3-2-8.6-3.6-12.9c-19.8-1.3-39.6-3.6-59.4-4.8c0-2.8,1-5.3,0.8-8.1c26.7-6.6,53.1-7.9,79.2-10.7c1,2.8,2.3,5.6,2,8.1
	c20.8,0,41.6-1.5,62.2-1.8c1.3-3.3,3-8.1,5.6-10.2c19,7.1,41.1,16.3,61.2,24.6c0.8,2.5-4.3,6.1-5.6,9.6
	C202.1,47.4,181.8,51.9,161.3,56.8z"/>
</svg>
