<?xml version="1.0" encoding="utf-8"?>
<!-- Generator: Adobe Illustrator 21.0.1, SVG Export Plug-In . SVG Version: 6.00 Build 0)  -->
<svg version="1.1" id="Layer_1" xmlns="http://www.w3.org/2000/svg" xmlns:xlink="http://www.w3.org/1999/xlink" x="0px" y="0px"
	 viewBox="0 0 255 363" style="enable-background:new 0 0 255 363;" xml:space="preserve">
<style type="text/css">
	.st0{fill:none;}
</style>
<path class="st0" d="M240.9,139.7c-5.3,35.7-27.3,64.6-58.5,81.3c-0.8-0.8-0.8-0.8-2.3-1.5c-0.8-0.8-1.5-0.8-2.3-0.8
	c-18.2-6.1-43.3-3-62.3-4.6c-13.7-0.8-31.1-4.6-43.3,3.8c-8.4-5.3-17.5-8.4-25.1-16c-11.4-12.2-22-26.6-28.1-42.5
	C6.2,127.5,20.6,81.9,41.9,56.9c20.5-22.8,45.6-36.5,74.4-43.3c27.3-6.1,67.6,0.8,88.1,20.5c0,0.8,1.5,2.3,2.3,2.3
	c13.7,3.8,22,28.9,26.6,40.3C242.4,97.1,244,117.6,240.9,139.7z M175.6,225.5c0,0.8-0.8,0.8-0.8,1.5c-0.8,0.8-1.5,1.5-2.3,2.3
	c-0.8,0.8-0.8,0.8-1.5,0.8c0,0-0.8,0-0.8,0.8c-7.6,1.5-17.5-1.5-25.1-0.8c-9.9,0.8-19.7,1.5-29.6,1.5c-6.8,0-41,6.1-38.7-7.6h0.8
	c10.6-8.4,34.2-3,47.1-2.3C139.9,224,160.4,220.9,175.6,225.5z M168,248.3c-3.8,3.8-10.6,3-15.2,3c-1.5,0-2.3,0.8-3,1.5
	c-12.2,0-23.5,0.8-35.7,0.8c-10.6,0-38.7,6.8-31.9-12.9c3.8,0.8,8.4,0.8,12.9,0.8c11.4,0,23.5-0.8,35.7-1.5c9.9-0.8,19-2.3,28.9-0.8
	c3,0.8,6.1,0.8,9.1,0.8C170.3,242.2,170.3,246,168,248.3z M165.7,269.5c-11.4,3-24.3,1.5-34.9,2.3c-13.7,0.8-26.6,2.3-40.3,2.3
	c-0.8-0.8-0.8-0.8-1.5-0.8c-3-1.5-3-7.6-2.3-11.4c0,0,0,0,0.8,0c8.4,1.5,19-0.8,27.3-0.8c12.9-0.8,25.1-0.8,38-0.8
	c0.8,0,2.3-0.8,2.3-0.8c3.8,0,8.4,0,11.4-0.8C168.8,261.2,168,266.5,165.7,269.5z M158.9,295.4l-0.8,0.8c-9.1,2.3-20.5,0.8-30.4,1.5
	c-12.2,0.8-25.1,1.5-37.2,1.5c0,0,0-0.8-0.8-0.8c-4.6-3-3.8-12.2-1.5-16c0,0,0,0,0-0.8H89c15.2,0,30.4-1.5,45.6-3
	c9.1-0.8,18.2,0,27.3-0.8C164.2,284.7,165,290.8,158.9,295.4z M158.9,316.6c-0.8,0-1.5,0.8-1.5,1.5c-12.2,1.5-24.3,0.8-36.5,2.3
	c-6.8,0.8-16,3-22,0c-0.8-0.8-0.8-1.5-2.3-1.5c-3-1.5-4.6-8.4-3-11.4c12.9,0,26.6-0.8,39.5-1.5c9.1-0.8,19,0.8,28.1-1.5
	C162.7,307.5,163.4,315.1,158.9,316.6z M140.7,343.2c-3,5.3-7.6,6.8-12.9,9.1c-6.1,0-11.4-4.6-14.4-10.6c9.1-2.3,19.7-0.8,28.9-1.5
	C142.2,340.9,141.4,342.5,140.7,343.2z M110.3,334.9c0-0.8-0.8-1.5-0.8-2.3c9.9,2.3,19.7-2.3,29.6,0
	C129.3,333.3,119.4,331.8,110.3,334.9z M238.6,67.5c-5.3-12.2-12.9-32.7-27.3-38c-22-22-60.8-27.3-90.4-24.3
	C85.2,9,56.3,29.5,32.8,56.1c-22,24.3-30.4,66.8-23.5,98.7c3.8,16,14.4,30.4,24.3,42.5c10.6,13.7,21.3,19,34.9,26.6
	c-0.8,7.6,2.3,11.4,6.8,13.7c-3,8.4-1.5,16,3.8,20.5c-2.3,6.1-1.5,14.4,3,19c-5.3,7.6-3.8,20.5,3.8,26.6c-2.3,6.8,0,16.7,6.8,20.5
	c0,0.8,0.8,1.5,1.5,1.5c2.3,1.5,4.6,1.5,6.8,2.3c1.5,14.4,11.4,31.1,26.6,31.1c0.8,0,1.5,0,2.3,0c6.8-3,12.2-5.3,16.7-11.4
	c5.3-6.1,7.6-15.2,9.1-22.8c1.5,0,3.8,0,5.3-0.8c1.5,0,2.3-0.8,2.3-2.3c8.4-4.6,8.4-18.2,3.8-25.8c1.5-2.3,3-4.6,3.8-7.6
	c2.3-5.3,0-9.9-0.8-15.2c0,0,0.8,0,0.8-0.8c4.6-6.1,6.1-13.7,2.3-20.5l0.8-0.8c3.8-4.6,3.8-10.6,2.3-16.7c0.8-0.8,0.8-1.5,0.8-2.3
	c1.5-1.5,3-3,4.6-5.3c37.2-18.2,64.6-53.9,67.6-96.5C251.6,110,247.8,88.8,238.6,67.5z"/>
<path class="st0" d="M87.5,35.6C59.4,66,45.7,113.1,48.7,154.1c0.8,5.3,8.4,5.3,7.6,0c-3-39.5,9.1-83.6,36.5-113.2
	C96.6,37.1,91.3,31.8,87.5,35.6z"/>
<path class="st0" d="M105.7,54.6c-12.9,30.4-12.9,63-12.9,95.7c0,5.3,7.6,5.3,7.6,0c0-31.1,0-62.3,12.2-91.1
	C114.8,53.8,108,50,105.7,54.6z"/>
<path class="st0" d="M207.5,55.3c-3-4.6-9.9,0-6.8,3.8c4.6,7.6,6.1,16,7.6,24.3c1.5,9.1,3.8,19,2.3,28.9c-0.8,5.3,6.8,6.8,7.6,2.3
	c2.3-9.9,0-19.7-1.5-29.6C215.9,74.3,213.6,64.5,207.5,55.3z"/>
</svg>
