<?xml version="1.0" encoding="utf-8"?>
<!-- Generator: Adobe Illustrator 21.0.1, SVG Export Plug-In . SVG Version: 6.00 Build 0)  -->
<svg version="1.1" id="Layer_1" xmlns="http://www.w3.org/2000/svg" xmlns:xlink="http://www.w3.org/1999/xlink" x="0px" y="0px"
	 viewBox="0 0 55 61" style="enable-background:new 0 0 55 61;" xml:space="preserve">
<style type="text/css">
	.st0{fill:none;}
</style>
<path class="st0" d="M43.9,22.8c-1.1,3-4.4,5.9-6.6,8.1c0.7-0.7,1.1-1.5,1.8-1.8c3.3-4.1,5.9-7,4.8-10.7
	C44.6,19.5,44.6,20.9,43.9,22.8z M31.3,33.5c-2.2,2.2-4.4,4.4-6.6,6.3c0.7-0.7,1.1-1.8,1.8-2.6c4.4-5.5,9.6-10.3,14-15.9
	C39.4,26.1,33.9,30.9,31.3,33.5z M14.7,43.5c0-0.7,0-1.1,0-1.8c0.4-0.7,0.4-1.1,0.7-1.5c0,0.7,0,1.5,0,2.2
	C15,42.7,15,43.1,14.7,43.5z M13.9,29.4c-0.4-5.9-1.5-11.8-1.1-17.7c0-0.4,0-0.4,0-0.7c0.4-0.4,0.4-0.7,0.7-1.1
	c0,8.5,1.1,17,1.5,25.9c0,0.4-0.4,0.7-0.7,1.1C14.3,34.2,14.3,32,13.9,29.4z M16.5,8c0,5.5,1.1,10.7,1.5,16.3
	c0.4,2.6,0.4,5.2,0.4,8.1c-0.4,0-0.7,0-0.7,0.4c-0.7-7.8-1.5-15.5-1.5-23.3c0-0.7-0.4-1.1-0.7-1.1C15.8,8,16.2,8,16.5,8z M19.1,8.8
	c0,0,0,0.4,0,0.7C21,15,21.3,22,21.3,28.7c-0.4,0-0.4,0.4-0.7,0.4c0-1.8,0-3.3,0-5.2C20.2,18.7,19.1,13.9,19.1,8.8z M21.3,34.6
	c-0.4,0-0.7,0.4-0.7,0.7c0-0.7,0-1.5,0-2.2c0.4-0.4,0.4-0.4,0.7-0.7C21.3,33.1,21.3,33.9,21.3,34.6z M25,33.5
	c0.7-0.7,1.5-1.8,2.2-2.6c3.7-4.4,7.4-9.6,11.8-13.7c0.7-0.7,0.4-1.5,0-1.8c0,0,0,0,0.4,0c0.7,0.7,1.5,1.8,1.5,2.6h-0.4h-0.4
	c-0.4,0.4-0.4,0.7-0.4,1.1c-4.4,5.2-8.9,10-13.3,15.1c-1.8,1.5-3,3.3-4.4,5.2c0.4-0.7,0.7-1.5,1.1-1.8c0.4,0,0.7-0.4,0.7-1.1
	c0,0,0,0,0-0.4c0.7,0,1.1-0.7,1.1-1.1C25,34.2,25,33.9,25,33.5z M11.7,39c-1.1-5.5-1.5-11.1-1.1-17c0.4,3.7,0.7,7.8,1.1,11.8
	C11.7,35,11.7,36.8,11.7,39z M46.8,18c-1.1-5.2-5.2-7-10-5.9c-4.1,1.1-7.8,4.8-10.3,8.5c0-4.8-1.1-9.6-4.1-12.9
	c-1.1-1.5-2.6-1.8-4.1-2.2c-0.4,0-1.1,0-1.5,0.4c-2.2,0-4.4,1.5-5.9,3.3c-3,4.4-3,11.4-3,16.6c-0.4,9.6,1.5,18.1,5.2,27
	c0,0.4,0.4,0.7,0.7,0.7c0.4,0.4,1.1,0.7,1.8,0c6.6-6.6,14.8-11.8,21.4-18.8C41.3,30.5,48.3,24.6,46.8,18z"/>
</svg>
