<svg version="1.1" id="logo" xmlns="http://www.w3.org/2000/svg" viewBox="0 0 273.3 55.1">
<path class="mds_black" d="M46.4,50.9V28.6c0-3.3-0.6-5.7-1.9-7.3c-1.3-1.5-3.3-2.3-5.9-2.3c-3.5,0-6.1,1-7.7,2.9c-1.7,1.9-2.5,4.9-2.5,9
	v19.9h-3.2V27.6c0-5.7-2.6-8.6-7.9-8.6c-3.6,0-6.2,1-7.8,3.1C7.8,24.2,7,27.5,7,32.1v18.8H3.9v-34h2.6l0.7,4.7h0.2
	c0.9-1.7,2.3-3,4-3.9c1.7-0.9,3.6-1.4,5.7-1.4c5.4,0,8.8,2,10.3,6h0.1c1.1-1.9,2.6-3.4,4.5-4.5c1.9-1,4-1.6,6.4-1.6
	c3.7,0,6.5,1,8.4,3c1.9,2,2.8,5.1,2.8,9.5v22.3H46.4z M74.2,51.5c-4.9,0-8.8-1.5-11.6-4.6c-2.8-3-4.1-7.3-4.1-12.8
	c0-5.4,1.3-9.8,4-13c2.7-3.3,6.3-4.9,10.8-4.9c4,0,7.2,1.4,9.5,4.2c2.3,2.8,3.5,6.6,3.5,11.4v2.5H61.8c0,4.7,1.1,8.2,3.3,10.7
	c2.1,2.5,5.2,3.7,9.2,3.7c1.9,0,3.6-0.1,5.1-0.4c1.5-0.3,3.3-0.9,5.6-1.8v2.8c-1.9,0.8-3.7,1.4-5.3,1.7S76.2,51.5,74.2,51.5z
	 M73.3,19c-3.3,0-5.9,1.1-7.9,3.2c-2,2.2-3.1,5.3-3.5,9.3h21c0-3.9-0.9-7-2.6-9.3C78.7,20.1,76.4,19,73.3,19z M108.1,16.2
	c2.5,0,4.6,0.4,6.4,1.3c1.8,0.9,3.4,2.4,4.8,4.6h0.2c-0.1-2.6-0.2-5.2-0.2-7.7V2.2h3.1v48.7h-2l-0.8-5.2h-0.3
	c-2.6,3.9-6.3,5.8-11.1,5.8c-4.7,0-8.3-1.5-10.8-4.4c-2.5-2.9-3.7-7.2-3.7-12.8c0-5.9,1.2-10.4,3.7-13.5
	C99.9,17.8,103.5,16.2,108.1,16.2z M108.1,19c-3.7,0-6.5,1.3-8.4,3.9c-1.9,2.6-2.8,6.4-2.8,11.4c0,9.6,3.7,14.5,11.2,14.5
	c3.8,0,6.7-1.1,8.5-3.3c1.8-2.2,2.7-5.9,2.7-11.1v-0.5c0-5.3-0.9-9-2.6-11.3C114.9,20.2,112.1,19,108.1,19z M136.9,50.9h-3.1v-34
	h3.1V50.9z M169.4,42c0,3-1.2,5.4-3.5,7c-2.3,1.6-5.6,2.5-9.9,2.5c-4.5,0-8.2-0.7-10.8-2.1v-3.4c3.4,1.7,7,2.6,10.8,2.6
	c3.4,0,5.9-0.6,7.7-1.7c1.7-1.1,2.6-2.6,2.6-4.5c0-1.7-0.7-3.2-2.1-4.3c-1.4-1.2-3.7-2.3-6.8-3.4c-3.4-1.2-5.8-2.3-7.2-3.2
	c-1.4-0.9-2.4-1.9-3.1-3c-0.7-1.1-1-2.5-1-4.1c0-2.5,1.1-4.6,3.2-6c2.1-1.5,5.1-2.2,9-2.2c3.7,0,7.2,0.7,10.5,2.1l-1.2,2.8
	c-3.3-1.4-6.4-2.1-9.3-2.1c-2.8,0-5,0.5-6.6,1.4s-2.4,2.2-2.4,3.8c0,1.8,0.6,3.2,1.9,4.3c1.3,1.1,3.7,2.3,7.4,3.6
	c3.1,1.1,5.3,2.1,6.7,3c1.4,0.9,2.4,1.9,3.1,3S169.4,40.5,169.4,42z M191.8,51.5c-4.9,0-8.7-1.5-11.4-4.6c-2.8-3.1-4.1-7.3-4.1-12.8
	c0-5.6,1.4-10,4.3-13.2c2.9-3.1,6.8-4.7,11.7-4.7c2.9,0,5.8,0.5,8.5,1.5l-0.8,2.8c-2.9-1-5.5-1.5-7.7-1.5c-4.2,0-7.3,1.3-9.5,3.9
	c-2.2,2.6-3.2,6.3-3.2,11.1c0,4.6,1.1,8.2,3.2,10.8c2.1,2.6,5.2,3.9,9,3.9c3.1,0,6-0.6,8.6-1.7v2.9C198.2,51,195.3,51.5,191.8,51.5z
	 M229.3,50.9l-0.8-5.4h-0.3c-1.7,2.2-3.5,3.7-5.3,4.6c-1.8,0.9-3.9,1.4-6.4,1.4c-3.3,0-5.9-0.9-7.8-2.6c-1.9-1.7-2.8-4.1-2.8-7.1
	c0-3.3,1.4-5.9,4.1-7.7s6.8-2.8,12-2.9l6.5-0.2v-2.3c0-3.2-0.7-5.7-2-7.3c-1.3-1.6-3.4-2.5-6.4-2.5c-3.2,0-6.4,0.9-9.8,2.6l-1.2-2.7
	c3.7-1.8,7.4-2.6,11.1-2.6c3.7,0,6.5,1,8.4,2.9c1.8,1.9,2.8,5,2.8,9.1v22.6H229.3z M216.8,48.7c3.6,0,6.5-1,8.6-3.1s3.1-5,3.1-8.7
	v-3.3l-5.9,0.3c-4.8,0.2-8.2,1-10.2,2.2s-3.1,3.2-3.1,5.9c0,2.1,0.7,3.8,2,5S214.4,48.7,216.8,48.7z M266.4,50.9V28.8
	c0-3.4-0.7-5.9-2.2-7.5c-1.4-1.6-3.7-2.3-6.7-2.3c-4.1,0-7,1-8.9,3.1s-2.8,5.4-2.8,10v18.8h-3.1v-34h2.6l0.6,4.7h0.2
	c2.2-3.5,6.1-5.3,11.8-5.3c7.7,0,11.6,4.1,11.6,12.4v22.3H266.4z"/>
<path class="mds_teal" d="M138.6,7.3c0,1.9-1.5,3.4-3.4,3.4c-1.9,0-3.4-1.5-3.4-3.4c0-1.9,1.5-3.4,3.4-3.4C137.1,3.9,138.6,5.4,138.6,7.3
	"/>
</svg>
