<svg version="1.1" xmlns="http://www.w3.org/2000/svg" xmlns:xlink="http://www.w3.org/1999/xlink" x="0px" y="0px"
	 viewBox="0 0 293.7 246" style="enable-background:new 0 0 293.7 246;" xml:space="preserve">
<style type="text/css">
	.mds-bg{fill:#EFEFD8;}
</style>
<path class="mds-bg" d="M242.5,166.9c-8.8,2.1-17.1,6.4-25.9,8.2c0,0-0.1,0-0.1,0c-25.4,6.6-50.7,12.7-76.3,18.3
	c-12.4,2.7-24.6,5.7-36.9,8.7c-11.1,2.7-23.5,3.6-34,8.1c-0.4,0.2-0.6,0.4-0.6,0.7c-0.2,0.2-0.3,0.4-0.3,0.7c0,1-0.5,2-0.5,3
	c0,1,0.8,1.4,1.5,1.3c0.3,0.1,0.6,0.2,0.9,0c3.8-1.3,8.7-1.4,12.7-2.3c5.6-1.3,11.2-2.6,16.8-3.9c11.6-2.6,23.1-5.2,34.8-7.5
	c24.9-4.9,49.5-9.9,74-16.8c0.2-0.1,0.4-0.2,0.6-0.3c10.4-2.8,22.6-3.7,32.2-8.9c2.8-1.5,2.2-4.8,2.9-7.5
	C244.4,167.6,243.5,166.7,242.5,166.9z M239.9,173.7c-9.4,5.1-21.6,5.9-31.8,8.7c-0.2,0.1-0.4,0.2-0.6,0.3
	c-23.5,6.6-47.1,11.6-71.1,16.2c-11.7,2.2-23.3,4.9-34.9,7.4c-5.7,1.3-11.3,2.6-17,4c-4.4,1.1-9.4,1.2-13.7,2.4
	c0-0.2,0.1-0.3,0.1-0.5c10.9-4.5,24-5.5,35.5-8.3c12.3-3,24.6-5.9,36.9-8.6c25.1-5.5,50-11.6,74.9-18c0,0,0,0,0,0
	c7.8-1.8,15.2-5.3,23-7.4C241.2,171.5,241,173.2,239.9,173.7z M77.2,192.3c3.5-0.3,5-2.6,4.8-5.5c0,0,0,0,0-0.1
	c10.2-18.9,21.7-37.7,33.2-55.8c5.7-8.9,10.6-18.5,15-28.2c2.3-5,3.9-10.3,6.2-15.3c1.9-4.2,4.4-7.9,6-12.2c0.1-0.3,0.1-0.5,0-0.7
	c2.8-4.8,4.9-10.2,7.3-15.2c2.2-4.5,5.1-8.6,5.7-13.7c0-0.3,0-0.5-0.1-0.7c0-0.2,0-0.5-0.2-0.7c-7.6-10-24.5-15.6-36.6-15.2
	c-0.6,0-0.9,0.3-1.1,0.7c-0.2,0.1-0.3,0.3-0.4,0.5c-2.6,5.5-5.5,10.8-8,16.4c-2.2,5.1-4.5,13.7-8.6,17.8c-0.4,0.4-0.4,0.8-0.3,1.2
	C96.4,74,92.1,82,88.6,90.4c-1.2,2.9-2.4,5.8-3.5,8.7c-0.3,0.3-0.4,0.6-0.4,1c-1.4,3.5-2.9,7.1-4.4,10.6c-0.1,0.1-0.1,0.2-0.2,0.3
	c-1.1,2.6-2.3,5.3-3.6,7.9c-4.2,8.7-8.8,17.2-13.2,25.8c-4.1,8.1-9.3,15.6-13,23.9c-0.1,0.3-0.1,0.6-0.1,0.8c0,0,0,0.1,0,0.1
	c-0.1,0.1-0.2,0.3-0.3,0.5c-1.1,3.6-0.3,5.8,2.2,8.5c3.2,3.3,5.4,7.2,4.4,11.9c-0.6,2.5-2.2,5.7-3.6,7.8c-0.4,0.6-0.2,1.2,0.2,1.5
	c0,0,0,0,0,0c-0.5,0.2-0.9,0.5-1,1.1c-0.6,4.2-2.4,8.4-2.6,12.6c-0.1,2.8,1.8,3.9,4.3,3.1c0.4,0.1,0.9-0.1,1.2-0.6
	c2.1-4.1,5.2-7.1,6.7-11.5c0.2-0.5,0.2-0.9,0.2-1.3c1.5-2.8,2.9-5.7,4.5-8.5C68.5,191.4,73.9,192.6,77.2,192.3z M126,105.6
	c-0.2-0.1-0.4-0.2-0.6-0.2c-7.3,0.1-15.2,2.5-22.5,3.5c-5.2,0.7-10.2,2.3-15.4,2.9c-0.8,0.1-1.5,0.2-2.2,0.3
	c13.3-2.4,26.4-5.7,39.7-8c0.3,0.5,0.9,0.8,1.5,0.6C126.3,105.1,126.2,105.4,126,105.6z M126.3,100.4c-0.1,0.3-0.3,0.6-0.5,0.9
	c-2.7,0.5-5.4,1-8.1,1.5C120.7,102.1,123.6,101.3,126.3,100.4z M94.9,104.1c3.9-0.7,7.9-1.4,11.9-2c4.2-0.7,8.4-1.7,12.7-2.5
	C111.5,101.7,103.1,102.8,94.9,104.1z M152.7,45.6C152.7,45.6,152.7,45.6,152.7,45.6C152.7,45.6,152.7,45.6,152.7,45.6
	c-0.6,5-4,9.7-6.1,14c-1,2-1.9,4.1-2.8,6.3c0,0,0,0-0.1-0.1c-1.9-1.3-4.2-2.3-6.5-3.2c1.3-4.2,4.4-8.4,6.4-12.2
	c1.5-2.8,3.8-6,4.8-9.2C150,42.5,151.5,44,152.7,45.6z M146.1,39.6c-0.1,0.1-0.1,0.2-0.2,0.4c-1,4-4.2,8.3-6.1,11.9
	c-1.7,3.2-4,6.3-5.1,9.8c-1.4-0.5-2.7-1-4-1.5c-0.1-0.1-0.3-0.1-0.4-0.2c4.3-7.4,7.9-15.2,12.6-22.3C143.9,38.2,145,38.9,146.1,39.6
	z M140.3,36.4c-4.6,7.2-8.3,15.1-12.6,22.5c-1.6-0.7-3.3-1.4-4.9-2c0-0.1,0.1-0.1,0.1-0.2c3-8,8.3-14.6,11.5-22.4
	C136.5,34.8,138.4,35.6,140.3,36.4z M131.9,33.5c-1.8,4.2-4.7,7.9-6.8,11.9c-1.8,3.4-3.4,6.9-4.7,10.5c-0.9-0.4-1.8-0.8-2.8-1.2
	c3.9-7.2,7.2-14.8,11.3-22C129.9,33,130.9,33.2,131.9,33.5z M119.1,31.7c2.2,0,4.6,0.2,7,0.6c-3.9,7-7.2,14.4-11,21.5
	c-1.7-0.7-3.3-1.4-5-2c-0.1-0.1-0.2,0-0.4-0.1C112.8,44.9,116,38.3,119.1,31.7z M102.6,66.1c0.1-0.2,0.1-0.3,0.1-0.4
	c2.8-3.1,4.5-7.8,6.1-11.8c0.1,0.2,0.3,0.3,0.6,0.4c5.4,2.1,10.7,4.7,16.1,6.7c2.8,1,6.3,2.2,9.6,3.6c0.1,0,0.1,0.1,0.2,0.1
	c2.6,1,5,2.2,7,3.5c0.1,0.1,0.2,0.1,0.3,0.1c-0.4,0.9-0.8,1.7-1.3,2.6c-8,0.1-15.9,0.4-24,0.3c-3.8-0.1-7.6,0.2-11.4,0.3
	c-1.9,0-3.8-0.3-5.7-0.1C101.1,69.6,101.9,67.8,102.6,66.1z M136.9,78.3c-7.5,0.1-15.1,2.1-22.6,2.7c-0.9,0.1-1.7,0.2-2.6,0.2
	c7.8-1.1,15.9-2.7,23.7-3.1c0.5,0,0.9-0.3,1.1-0.7c0,0.2,0.1,0.4,0.2,0.6C136.7,78.1,136.8,78.2,136.9,78.3z M98.9,74.3
	c0.1,0,0.2,0,0.3-0.1c2.5-1,6.3-0.2,9-0.2c3.8,0,7.6-0.3,11.5-0.2c4.3,0.1,8.5,0,12.8-0.1c-11.5,0.9-23,2.4-34.4,2.6
	C98.3,75.6,98.6,75,98.9,74.3z M96.9,78.8c0.2,0.1,0.4,0.2,0.7,0.2c6.5-0.1,13.1-0.6,19.6-1.2c-1.3,0.2-2.7,0.4-4,0.6
	c-4,0.5-8.1,1.1-12.1,1.5c-1.7,0.2-3.1-0.1-4.6-0.1C96.5,79.4,96.7,79.1,96.9,78.8z M95,82.8c1.7-0.6,3.8-0.5,5.8-0.5
	c-0.4,0-0.8,0.1-1.2,0.1c-1.7,0.2-3.2,0.1-4.7,0.5C94.9,82.9,94.9,82.8,95,82.8z M90.3,93.4c1-2.4,2.1-4.9,3.1-7.3
	c0.3,0.1,0.6,0.1,1-0.1c2.4-1.4,7.3-1.1,10-1.4c4.1-0.4,8.1-0.9,12.2-1.2c6.8-0.6,13.6-2.4,20.5-2.5c-1.9,4.2-4,8.4-5.9,12.6
	c-0.1,0-0.2-0.1-0.3-0.1l-0.3,0c0,0-0.1,0-0.1,0c-2.3,0.1-4.9,1-7.1,1.4c-4.7,0.8-9.4,1.2-14.1,1.7c-7,0.6-14,1.5-21,2
	C88.9,96.8,89.6,95.1,90.3,93.4z M87.1,101.3c6.3-0.4,12.5-1.2,18.8-1.8c-6.6,1-13.1,2.1-19.6,3.7C86.6,102.6,86.9,101.9,87.1,101.3
	z M83.9,108.9c8.4-2,17.4-3,26.1-4.6c-8.8,1.9-17.6,3.8-26.5,5.4C83.7,109.5,83.8,109.2,83.9,108.9z M65.6,146.1
	c4.6-9.4,9.7-18.5,14.2-27.9c0.4-0.8,0.7-1.5,1.1-2.3c0,0,0.1,0,0.1,0c3.4-1.5,7.6-1.3,11.3-2c3.8-0.7,7.5-1.8,11.3-2.3
	c6.9-1,14.3-3.2,21.2-3.4c-3.5,7.4-7.7,14.6-11.9,21.4c-8.4,13.4-16.8,27-24.8,40.8c-2.8-3-6.9-5.1-10.3-7.2
	c-5.3-3.3-11.7-5.3-17.7-7.1C62,152.9,63.9,149.5,65.6,146.1z M58.7,158.6c5.5,1.6,10.8,3.6,16,6c3.6,1.7,9.7,5,12.1,8.3
	c-1,1.7-1.9,3.3-2.9,5c-4.6-3-26.2-12.9-28.6-12.6c0-0.2,0-0.3,0-0.5C56.3,162.7,57.5,160.6,58.7,158.6z M54.2,166.8
	c4.3,2,8.8,3.7,13.3,5.4c2.9,1.1,5.4,2.7,8,4.2c2.3,1.3,5.1,2.1,7.1,3.8c-0.6,1.1-1.2,2.2-1.9,3.4c-3.1-2.9-7-4.3-11-5.8
	c-5.7-2.2-11.7-4.8-16.8-8.3C53.3,168.5,53.8,167.7,54.2,166.8z M55.4,210.9c0.3-0.9,0.5-1.8,0.8-2.7c0.3,0.2,0.5,0.4,0.8,0.5
	C56.5,209.4,56,210.1,55.4,210.9z M58.6,205.6c-0.1,0.2-0.2,0.4-0.3,0.7c-0.5-0.2-0.9-0.6-1.4-0.9c0,0,0,0,0,0
	c0.2-0.9,0.3-1.8,0.4-2.7c0-0.1,0-0.2-0.1-0.3c0,0,0,0,0,0C59.4,203.2,59.3,203.6,58.6,205.6z M67.6,190.6c-4,1.8-5.5,6.3-7.4,10.1
	c-1.2-0.9-2.9-1.5-4.3-2.1c2-3.3,3.5-7.3,3.6-11.1c0.2-5.4-7.3-10.2-7.3-15.3c4.2,2.8,8.8,4.6,13.4,6.7c4.6,2,9.7,3.2,13.3,6.7
	c1.3,4.5-2.7,4.1-5.9,4.1C71.4,189.7,69.3,189.8,67.6,190.6z"/>
</svg>
