<svg class="soc-menu" xmlns="http://www.w3.org/2000/svg" viewBox="0 0 480 120">
	<a href="https://www.linkedin.com/company-beta/132370/" target="_blank">
<g id="IN">
	<rect x="360" class="fill-none" width="120" height="120"/>
	<path class="soc_icon"  d="M420,12.9c-26,0-47.1,21.1-47.1,47.1s21.1,47.1,47.1,47.1S467.1,86,467.1,60S446,12.9,420,12.9z
		 M405.5,87.8H394V50.7h11.5V87.8z M399.7,45.6c-3.7,0-6.7-3-6.7-6.7s3-6.7,6.7-6.7s6.7,3,6.7,6.7S403.4,45.6,399.7,45.6z
		 M448.6,87.8h-11.5v-18c0-4.3-0.1-9.8-6-9.8c-6,0-6.9,4.7-6.9,9.5v18.4h-11.5V50.7h11.1v5.1h0.2c1.5-2.9,5.3-6,10.9-6
		c11.7,0,13.8,7.7,13.8,17.7L448.6,87.8L448.6,87.8z"/>
</g>
</a>
<a href="https://twitter.com/mediscan" target="_blank">
<g id="TW">
	<rect x="240" class="fill-none" width="120" height="120"/>
	<path class="soc_icon"  d="M300,12.9c-26,0-47.1,21.1-47.1,47.1s21.1,47.1,47.1,47.1S347.1,86,347.1,60S326,12.9,300,12.9z
		 M324,47.7c0,0.6,0,1.1,0,1.7c0,17.1-12.4,36.9-35,36.9c-6.9,0-13.4-2.1-18.8-5.8c1,0.1,1.9,0.2,2.9,0.2c5.8,0,11.1-2.1,15.3-5.6
		c-5.4-0.1-9.9-3.9-11.5-9c0.8,0.2,1.5,0.2,2.3,0.2c1.1,0,2.2-0.2,3.2-0.5c-5.6-1.2-9.9-6.4-9.9-12.7v-0.2c1.7,1,3.6,1.6,5.6,1.6
		c-3.3-2.3-5.5-6.3-5.5-10.8c0-2.4,0.6-4.6,1.7-6.5c6.1,7.8,15.1,13,25.3,13.6c-0.2-1-0.3-1.9-0.3-3c0-7.2,5.5-13,12.3-13
		c3.5,0,6.7,1.6,9,4.1c2.8-0.6,5.4-1.7,7.8-3.2c-0.9,3-2.9,5.6-5.4,7.2c2.5-0.3,4.9-1,7.1-2C328.5,43.6,326.4,45.8,324,47.7z"/>
</g>
</a>
<a href="https://www.facebook.com/mediscan" target="_blank">
<g id="FB">
	<rect x="120" class="fill-none" width="120" height="120"/>
	<path class="soc_icon"  d="M180,12.9c-26,0-47.1,21.1-47.1,47.1c0,23.3,16.9,42.6,39,46.4V69.1h-11.7V55.6h11.7v-10
		c0-11.6,7.1-17.9,17.4-17.9c4.9,0,9.2,0.4,10.4,0.5v12.1h-7.2c-5.6,0-6.7,2.7-6.7,6.6v8.6h13.4L197.5,69h-11.6v37.6
		c23.2-2.9,41.2-22.7,41.2-46.7C227.1,34,206,12.9,180,12.9z"/>
</g>
</a>
<a href="https://www.pinterest.com/mediscan/" target="_blank">
<g id="PIN">
	<rect id="Rect" class="fill-none" width="120" height="120"/>
	<path class="soc_icon"  d="M60,12.9C34,12.9,12.9,34,12.9,60S34,107.1,60,107.1S107.1,86,107.1,60S86,12.9,60,12.9z M60,92.2
		c-3.3,0-6.5-0.5-9.5-1.4c1.3-2.1,3.3-5.7,4-8.5c0.4-1.5,2-7.7,2-7.7c1.1,2,4.1,3.7,7.4,3.7c9.7,0,16.7-8.9,16.7-20.1
		c0-10.7-8.7-18.6-19.9-18.6c-13.9,0-21.3,9.3-21.3,19.5c0,4.7,2.5,10.6,6.5,12.5c0.6,0.3,0.9,0.2,1.1-0.4c0.1-0.4,0.7-2.6,0.9-3.7
		c0.1-0.3,0-0.6-0.2-0.9c-1.3-1.6-2.4-4.6-2.4-7.4c0-7.1,5.4-14,14.6-14c7.9,0,13.5,5.4,13.5,13.1c0,8.7-4.4,14.8-10.1,14.8
		c-3.2,0-5.5-2.6-4.8-5.8c0.9-3.8,2.7-8,2.7-10.7c0-2.5-1.3-4.5-4.1-4.5c-3.2,0-5.8,3.3-5.8,7.8c0,2.9,1,4.8,1,4.8s-3.2,13.5-3.8,16
		c-0.6,2.8-0.4,6.7-0.1,9.2c-12-4.7-20.5-16.4-20.5-30c0-17.8,14.4-32.2,32.2-32.2s32.2,14.4,32.2,32.2C92.2,77.8,77.8,92.2,60,92.2
		z"/>
</g>
</a>
</svg>
