<svg id="soc_menu" xmlns="http://www.w3.org/2000/svg" viewBox="0 0 600 120">
<style type="text/css">
	.fill-none{fill:none;}
</style>
<a href="https://www.linkedin.com/company-beta/132370/" target="_blank">
<g id="IN">
	<rect x="480" class="fill-none" width="120" height="120"/>
	<path id="IN_x5F_icon" class="soc_icon" d="M540,12.9c-26,0-47.1,21.1-47.1,47.1s21.1,47.1,47.1,47.1c26,0,47.1-21.1,47.1-47.1
		S566,12.9,540,12.9z M525.5,87.8h-11.5V50.7h11.5V87.8z M519.7,45.6c-3.7,0-6.7-3-6.7-6.7c0-3.7,3-6.7,6.7-6.7c3.7,0,6.7,3,6.7,6.7
		C526.4,42.6,523.4,45.6,519.7,45.6z M568.6,87.8h-11.5v-18c0-4.3-0.1-9.8-6-9.8c-6,0-6.9,4.7-6.9,9.5v18.4h-11.5V50.7h11.1v5.1h0.2
		c1.5-2.9,5.3-6,10.9-6c11.7,0,13.8,7.7,13.8,17.7V87.8z"/>
</g>
</a>
<a href="https://twitter.com/mediscan" target="_blank">
<g id="TW">
	<rect x="360" class="fill-none" width="120" height="120"/>
	<path id="TW_x5F_icon" class="soc_icon" d="M420,12.9c-26,0-47.1,21.1-47.1,47.1s21.1,47.1,47.1,47.1S467.1,86,467.1,60
		S446,12.9,420,12.9z M444,47.7c0,0.6,0,1.1,0,1.7c0,17.1-12.4,36.9-35,36.9c-6.9,0-13.4-2.1-18.8-5.8c1,0.1,1.9,0.2,2.9,0.2
		c5.8,0,11.1-2.1,15.3-5.6c-5.4-0.1-9.9-3.9-11.5-9c0.8,0.2,1.5,0.2,2.3,0.2c1.1,0,2.2-0.2,3.2-0.5c-5.6-1.2-9.9-6.4-9.9-12.7v-0.2
		c1.7,1,3.6,1.6,5.6,1.6c-3.3-2.3-5.5-6.3-5.5-10.8c0-2.4,0.6-4.6,1.7-6.5c6.1,7.8,15.1,13,25.3,13.6c-0.2-1-0.3-1.9-0.3-3
		c0-7.2,5.5-13,12.3-13c3.5,0,6.7,1.6,9,4.1c2.8-0.6,5.4-1.7,7.8-3.2c-0.9,3-2.9,5.6-5.4,7.2c2.5-0.3,4.9-1,7.1-2
		C448.5,43.6,446.4,45.8,444,47.7z"/>
</g>
</a>
<a href="https://www.facebook.com/mediscan" target="_blank">
<g id="FB">
	<rect x="240" class="fill-none" width="120" height="120"/>
	<path id="FB_x5F_icon" class="soc_icon" d="M300,12.9c-26,0-47.1,21.1-47.1,47.1c0,23.3,16.9,42.6,39,46.4V69.1h-11.7V55.6h11.7v-10
		c0-11.6,7.1-17.9,17.4-17.9c4.9,0,9.2,0.4,10.4,0.5v12.1l-7.2,0c-5.6,0-6.7,2.7-6.7,6.6v8.6h13.4l-1.7,13.5h-11.6v37.6
		c23.2-2.9,41.2-22.7,41.2-46.7C347.1,34,326,12.9,300,12.9z"/>
</g>
</a>
<a href="https://www.pinterest.com/mediscan/" target="_blank">
<g id="PIN">
	<rect id="Rect" x="120" class="fill-none" width="120" height="120"/>
	<path id="PIN_x5F_icon" class="soc_icon" d="M180,12.9c-26,0-47.1,21.1-47.1,47.1s21.1,47.1,47.1,47.1S227.1,86,227.1,60
		S206,12.9,180,12.9z M180,92.2c-3.3,0-6.5-0.5-9.5-1.4c1.3-2.1,3.3-5.7,4-8.5c0.4-1.5,2-7.7,2-7.7c1.1,2,4.1,3.7,7.4,3.7
		c9.7,0,16.7-8.9,16.7-20.1c0-10.7-8.7-18.6-19.9-18.6c-13.9,0-21.3,9.3-21.3,19.5c0,4.7,2.5,10.6,6.5,12.5c0.6,0.3,0.9,0.2,1.1-0.4
		c0.1-0.4,0.7-2.6,0.9-3.7c0.1-0.3,0-0.6-0.2-0.9c-1.3-1.6-2.4-4.6-2.4-7.4c0-7.1,5.4-14,14.6-14c7.9,0,13.5,5.4,13.5,13.1
		c0,8.7-4.4,14.8-10.1,14.8c-3.2,0-5.5-2.6-4.8-5.8c0.9-3.8,2.7-8,2.7-10.7c0-2.5-1.3-4.5-4.1-4.5c-3.2,0-5.8,3.3-5.8,7.8
		c0,2.9,1,4.8,1,4.8s-3.2,13.5-3.8,16c-0.6,2.8-0.4,6.7-0.1,9.2c-12-4.7-20.5-16.4-20.5-30c0-17.8,14.4-32.2,32.2-32.2
		c17.8,0,32.2,14.4,32.2,32.2C212.2,77.8,197.8,92.2,180,92.2z"/>
</g>
</a>
<a href="" target="_blank">
<g id="IG">
	<rect id="rect" x="0" class="fill-none" width="120" height="120"/>
	<path id="IG_x5F_icon" class="soc_icon" d="M60,12.9C34,12.9,12.9,34,12.9,60S34,107.1,60,107.1S107.1,86,107.1,60S86,12.9,60,12.9z
		 M89.8,72.4c-0.1,3.2-0.7,5.4-1.4,7.3c-0.8,2-1.8,3.6-3.5,5.3c-1.7,1.7-3.3,2.7-5.3,3.5c-1.9,0.7-4.1,1.2-7.3,1.4
		C69.2,90,68.1,90,60,90s-9.2,0-12.4-0.2c-3.2-0.1-5.4-0.7-7.3-1.4c-2-0.8-3.6-1.8-5.3-3.5c-1.7-1.7-2.7-3.3-3.5-5.3
		c-0.7-1.9-1.2-4.1-1.4-7.3C30,69.2,30,68.1,30,60c0-8.1,0-9.2,0.2-12.4c0.1-3.2,0.7-5.4,1.4-7.3c0.8-2,1.8-3.6,3.5-5.3
		c1.7-1.7,3.3-2.7,5.3-3.5c1.9-0.7,4.1-1.2,7.3-1.4C50.8,30,51.9,30,60,30s9.2,0,12.4,0.2c3.2,0.1,5.4,0.7,7.3,1.4
		c2,0.8,3.6,1.8,5.3,3.5c1.7,1.7,2.7,3.3,3.5,5.3c0.7,1.9,1.2,4.1,1.4,7.3C90,50.8,90,51.9,90,60C90,68.1,90,69.2,89.8,72.4z
		 M83.4,42.3c-0.5-1.4-1.2-2.4-2.2-3.5c-1-1-2-1.7-3.4-2.2c-1.1-0.4-2.6-0.9-5.6-1C69,35.4,68,35.4,60,35.4s-9,0-12.1,0.2
		c-2.9,0.1-4.5,0.6-5.6,1c-1.4,0.5-2.4,1.2-3.5,2.2s-1.7,2-2.2,3.5c-0.4,1.1-0.9,2.6-1,5.6C35.4,51,35.4,52,35.4,60s0,9,0.2,12.1
		c0.1,2.9,0.6,4.5,1,5.6c0.5,1.4,1.2,2.4,2.2,3.5c1,1,2,1.7,3.4,2.2c1.1,0.4,2.6,0.9,5.6,1C51,84.6,52,84.6,60,84.6s9,0,12.1-0.2
		c2.9-0.1,4.5-0.6,5.6-1c1.4-0.5,2.4-1.2,3.5-2.2c1-1,1.7-2,2.2-3.4c0.4-1.1,0.9-2.6,1-5.6C84.6,69,84.6,68,84.6,60s0-9-0.2-12.1
		C84.3,45,83.8,43.4,83.4,42.3z M60,75.4c-8.5,0-15.4-6.9-15.4-15.4S51.5,44.6,60,44.6S75.4,51.5,75.4,60S68.5,75.4,60,75.4z
		 M76,47.6c-2,0-3.6-1.6-3.6-3.6s1.6-3.6,3.6-3.6c2,0,3.6,1.6,3.6,3.6S78,47.6,76,47.6z M70,60c0,5.5-4.5,10-10,10s-10-4.5-10-10
		s4.5-10,10-10S70,54.5,70,60z"/>
</g>
</a>
</svg>
