<?xml version="1.0" encoding="utf-8"?>
<!-- Generator: Adobe Illustrator 21.0.1, SVG Export Plug-In . SVG Version: 6.00 Build 0)  -->
<svg version="1.1" id="Layer_1" xmlns="http://www.w3.org/2000/svg" xmlns:xlink="http://www.w3.org/1999/xlink" x="0px" y="0px"
	 viewBox="0 0 69 77" style="enable-background:new 0 0 69 77;" xml:space="preserve">
<style type="text/css">
	.st0{fill:none;}
</style>
<path class="st0" d="M47.6,46.6c0-0.2,0-0.2,0-0.4c0.6-0.4,1.3-1.1,1.9-1.7l0.2,0.2C49.1,45.3,48.3,46,47.6,46.6z M51.2,39
	c0,0.2-0.2,0.2-0.2,0.2c-0.4,0.2-1.1,0.6-1.5,0.8C50,39.8,50.6,39.4,51.2,39z M42.6,56.3c0-0.2,0-0.4,0.2-0.6c0-0.2,0-0.2,0-0.4
	c0.6-1.3,1.1-2.5,1.7-3.6c0-0.2,0.2-0.4,0.4-0.6c-0.2,0.6-0.6,1.3-0.8,2.1C43.4,54.2,43,55.2,42.6,56.3z M38.8,64.1
	c0-0.2,0-0.4,0-0.4c0.6-1.5,1.3-3,1.9-4.4c-0.6,1.7-1.3,3.4-1.9,5.1C39,64.1,38.8,64.1,38.8,64.1z M38.3,61.1c0-0.4,0.2-0.6,0.2-1.1
	c0-0.4,0.2-0.6,0.4-1.1c0,0.4,0,0.8-0.2,1.3C38.8,60.7,38.6,61.1,38.3,61.1z M43,45.5c0-0.2,0-0.2-0.2-0.4c0.6-0.4,1.1-0.6,1.7-0.8
	c0.2,0.2,0.2,0.2,0.4,0c0.6-0.4,1.3-0.8,1.9-1.1c0.2-0.2,0.6-0.2,0.8-0.4c-1.7,0.8-3.4,1.9-5.1,3C43,45.5,43,45.5,43,45.5z
	 M40.7,47.4c0-0.2,0-0.4,0-0.6c0-0.2,0-0.4,0-0.6l0.2,0.2c0,0,0,0,0.2,0C41.1,46.6,40.9,47,40.7,47.4z M35,58.8
	c0.2,0.2,0.4,0.4,0.8,0.6c0,0.2,0,0.2,0,0.4C35.4,59.7,35.2,59.2,35,58.8z M34.8,55.2c-0.4-0.8-0.8-1.9-1.3-2.7
	c-0.6-1.7-1.1-3.4-2.5-4.4c0-0.2-0.2-0.2-0.2-0.4c0,0,0,0-0.2,0l-0.2-0.2c-0.6-0.2-1.1,0.2-1.7,0.4c-1.7,0.4-3.2,1.3-4.9,1.9
	c-2.1,0.6-4,1.9-5.9,2.7c-0.2,0-0.4,0.2-0.6,0.2c1.3-1.7,2.7-3.4,3.8-5.1c1.7-2.5,3.4-4.9,5.3-7.4c0.2-0.4,0-0.8-0.4-0.8
	c0-0.2-0.2-0.2-0.2-0.4c0-0.2-0.2-0.2-0.4-0.2l-0.2-0.2c-0.8-2.3-2.1-4.2-3.4-6.3c-0.8-1.3-1.5-2.5-2.3-3.8
	c-0.4-0.6-1.1-1.7-1.7-2.5c0-0.2,0-0.2-0.2-0.4c0.2,0,0.2,0,0.4,0c3.2,0.8,6.1,0.8,9.3,1.5c2.5,0.6,5.3,1.5,8,1.7
	c0.2-0.2,0.2-0.2,0.4-0.4c0,0,0,0,0.2,0c1.9-1.7,3.6-3.4,5.5-4.9c0.8-0.8,1.7-1.7,2.5-2.5c-0.2,2.3-0.6,4.6-1.1,7
	c-0.2,1.7-0.4,3.4-0.6,5.1c-0.2,0.8,0,1.7-0.2,2.5v0.2c0,0.2,0,0.2-0.2,0.4c0.8,0.2,1.7,0.2,2.5,0.4c0.8,0.2,1.7,0.4,2.7,0.6
	c1.1,0.2,2.1,0.2,3.2,0.6c0.2,0,0.4,0.2,0.6,0.2c-1.3,0.6-2.3,1.5-3.6,2.3c-1.7,1.1-3.8,1.9-5.3,3.2c-0.6,0.4-1.3,0.6-1.9,0.8v0.2
	l-0.2,0.2c-1.1,4.2-2.5,8.4-3.6,12.9c0-0.2-0.2-0.2-0.2-0.4C35.6,56.7,35.2,55.9,34.8,55.2z M31,56.7c0.4,0,0.8,0.2,1.3,0.2
	c0,0,0,0,0,0.2v0.2v0.2C31.8,57.3,31.4,57.1,31,56.7z M31.4,51c0.2,0,0.2-0.2,0.4-0.2c0.2,0.6,0.4,1.3,0.8,1.9
	C32.2,52.1,31.8,51.7,31.4,51z M30.1,55.4c0.2,0,0.2-0.2,0.4-0.2V55c0.2,0,0.2,0,0.4-0.2c0.2,0.4,0.4,0.6,0.6,1.1
	C31,55.7,30.5,55.7,30.1,55.4z M28.9,52.1c0-0.2-0.2-0.2-0.4-0.2c0.2-0.2,0.4-0.4,0.4-0.6c0,0.2,0,0.4,0,0.6
	C28.9,51.7,28.9,51.9,28.9,52.1z M27.8,53.3v-0.2c0,0,0.2,0,0.2-0.2c0,0.2,0.2,0.2,0.2,0.4v0.2C28,53.5,27.8,53.5,27.8,53.3z
	 M25.7,54.2c-0.4-0.2-0.6,0-0.8,0.2c-0.4,0-0.8,0.2-1.1,0.2c0.2,0,0.4-0.2,0.8-0.2c0.6-0.2,1.3-0.4,1.9-0.6c0,0,0,0,0,0.2l0.2,0.2
	C26.5,54,26.1,54.2,25.7,54.2z M18.7,55.7c-0.2,0-0.2,0.2-0.2,0.2c-0.6,0-1.3,0-1.9,0c0.2,0,0.2-0.2,0.4-0.2s0.6,0,0.8,0
	C18.3,55.7,18.5,55.7,18.7,55.7z M14.1,52.3C14.1,52.1,14.1,52.1,14.1,52.3c0,0.2,0,0.2,0.2,0.4c-0.4,0.4-0.6,0.8-1.1,1.3
	C13,54,13,54,13,54C13.4,53.3,13.9,52.7,14.1,52.3z M19.1,42.4c0,0.2-0.2,0.6-0.2,0.8c-0.4,0.6-0.8,1.5-1.5,2.1
	c-0.2,0.4-0.4,0.6-0.6,1.1c-0.8,1.1-1.7,2.3-2.3,3.6C15.6,47.2,17.7,44.9,19.1,42.4z M21.5,39.8c-0.4-0.6-0.6-1.3-0.8-1.9
	c0.2,0.2,0.4,0.2,0.4,0c0.2,0.4,0.4,0.8,0.6,1.3C21.7,39.4,21.5,39.6,21.5,39.8z M13.2,56.9c-0.4,0-0.6,0-0.8,0c0,0,0-0.2,0.2-0.2
	s0.4,0,0.6-0.2c0.2,0,0.2,0,0.4,0C13.2,56.7,13.2,56.9,13.2,56.9z M23.4,38.4c0.4,0.4,0.6,0.8,0.8,1.3c0,0,0,0,0,0.2
	c-0.2,0.2-0.4,0.4-0.4,0.8C23.8,39.8,23.6,39.2,23.4,38.4z M22.9,41.1C22.7,41.1,22.7,41.1,22.9,41.1c-0.2,0-0.2,0-0.4-0.2
	c-0.2,0-0.4-0.2-0.4-0.4c0-0.2,0.2-0.2,0.2-0.4l0.2,0.2C22.5,40.7,22.7,40.9,22.9,41.1z M21.3,41.7c0-0.2,0.2-0.2,0.2-0.4
	c0.2,0.2,0.4,0.2,0.6,0.4c-0.2,0.2-0.2,0.4-0.4,0.8c-1.9,2.3-3.4,5.3-5.5,7.4H16c0.2-0.4,0.4-0.8,0.6-1.1c0.2-0.4,0.6-0.8,1.1-1.5
	c1.3-1.7,2.5-3.2,3.6-5.1C21.5,42.2,21.5,41.9,21.3,41.7z M10.9,58.8c0.2-0.2,0.4-0.4,0.6-0.6c0.6,0,1.1,0,1.7,0c0.2,0,0.6,0,0.8,0
	C13,58.2,12,58.4,10.9,58.8z M17.7,36.2h0.2c0.2,0.6,0.4,1.5,0.6,2.1C18.3,37.5,17.9,36.9,17.7,36.2z M18.1,31.8
	c-0.2-0.8-0.6-1.5-1.1-2.1c-0.2-0.6-0.4-1.3-0.6-2.1c0.4,0.6,0.6,1.3,1.1,2.1c0.4,0.6,0.8,1.3,1.3,1.9c-0.2,0-0.4,0.2-0.4,0.6
	s0.2,0.6,0.2,0.8C18.5,32.7,18.3,32.2,18.1,31.8z M16.4,31.2c-0.2-0.2-0.4-0.2-0.6,0c-0.6-1.9-1.7-4.4-1.7-6.5l0.2,0.2
	c0,0,0,0,0,0.2c0,1.7,0.8,3.2,1.5,4.9c0.2,0.6,0.4,1.1,0.6,1.7C16.6,31.2,16.4,31.2,16.4,31.2z M12.6,23.4c0.2,0,0.4,0.2,0.6,0.2
	c0,0.2,0,0.4,0,0.6C13,24,12.8,23.6,12.6,23.4z M16.8,26.8c0,0.2,0.2,0.4,0.2,0.8c-0.6-0.2-0.8-0.8-0.6-1.3
	C16.6,26.3,16.8,26.5,16.8,26.8z M10.1,22.1C10.1,22.1,10.1,21.9,10.1,22.1c3,0,6.1,0.2,9.1,0.4c-0.2,0-0.6,0-0.8,0
	c-1.9-0.2-3.8-0.2-5.7-0.2C11.8,22.1,10.9,22.1,10.1,22.1z M42.1,14.5c-0.4,0.4-0.8,0.8-1.1,1.5c-2.7,2.1-5.5,4.2-8,6.3
	C35.8,19.6,39,17,42.1,14.5z M35.2,25.7c-0.2,0.2-0.2,0.2-0.4,0.4c-0.2,0.2-0.2,0.4-0.4,0.6c-0.2,0-0.4,0.2-0.6,0.2
	C34.3,26.5,34.8,26.1,35.2,25.7z M35.2,23.6v-0.2c0.2-0.2,0.6-0.4,0.8-0.4c0,0.2,0,0.2,0,0.4C35.6,23.4,35.4,23.6,35.2,23.6z
	 M22.9,24.9c0.2,0,0.4,0,0.4-0.2c1.3,0,2.5,0.2,3.6,0.2c0.4,0,1.1,0,1.5,0c0.2,0,0.2,0,0.4,0c-1.7,0-3.6,0-5.5,0
	C23.2,24.9,23.2,24.9,22.9,24.9c0,0-0.2,0-0.4,0C22.7,24.9,22.9,24.9,22.9,24.9z M41.1,21.1c-0.2,0.2-0.4,0.4-0.6,0.4
	c-0.2-0.2-0.4-0.2-0.6,0c-0.2,0.2-0.4,0.4-0.6,0.6c0-0.2-0.2-0.2-0.4-0.2c0.4-0.2,0.8-0.6,1.3-0.8c0,0.2,0.2,0.2,0.4,0.2
	C40.9,21.1,40.9,21.1,41.1,21.1z M43,15.8c0.2,0.2,0.4,0.2,0.6,0c0.2,0,0.2-0.2,0.4-0.2c0,0.2,0.2,0.2,0.2,0.2
	c-3.4,1.7-6.3,4.4-9.5,6.5c0.2-0.2,0.4-0.4,0.8-0.6c2.3-1.7,4.6-3.4,7-5.1c0.2-0.2,0.2-0.4,0-0.6C42.8,16,43,15.8,43,15.8z
	 M46.2,11.8c0,0.2,0.2,0.2,0.4,0.2c-0.2,0-0.2,0-0.2,0.2c-0.6,0.4-1.1,0.8-1.7,1.3C45.1,12.8,45.7,12,46.2,11.8z M45.9,15.1
	c0,0.4,0,0.8-0.2,1.3c0,0-0.2,0-0.2-0.2c0.2-0.2,0-0.6-0.2-0.8C45.5,15.4,45.7,15.4,45.9,15.1z M47,11.6c0-0.2,0.2-0.2,0.2-0.4
	c0,0,0,0,0-0.2c0,0.4,0.2,0.6,0.2,1.1C47.2,12,47.2,11.8,47,11.6C47,11.8,47,11.8,47,11.6z M49.3,9.2C49.7,9,49.7,8.8,50,8.6
	c0,0.2,0,0.4-0.2,0.8c0,0,0,0-0.2,0.2c-0.2,0.4-0.4,0.6-0.6,0.8c0-0.2,0-0.6-0.2-0.8C48.9,9.4,49.1,9.2,49.3,9.2z M48.1,15.4
	c0,0.2,0,0.4,0,0.6h-0.2c0-0.2-0.2-0.6-0.2-1.1c0,0,0,0,0-0.2C47.8,14.7,47.8,14.9,48.1,15.4z M49.5,11.3c0,0.8,0,1.5-0.2,2.3
	c0-0.6-0.2-1.3-0.2-1.9C49.3,11.6,49.5,11.6,49.5,11.3z M44.7,35.4l-0.2,0.2h-0.2c0.2-0.4,0.2-0.6,0.4-1.1
	C44.7,34.8,44.7,35.2,44.7,35.4z M47.4,31.4c-0.2,0-0.2,0.2-0.4,0.4c0,0.4,0,0.6,0,1.1h-0.2v-0.2c0.2-0.8,0.2-1.9,0.4-2.7
	c0-0.4,0.2-0.6,0.2-1.1C47.4,29.7,47.4,30.6,47.4,31.4z M47,33.9c0,0.2,0,0.4,0,0.4c-0.2,0-0.2,0-0.4-0.2c0-0.2,0-0.4,0-0.4
	C46.8,33.7,47,33.9,47,33.9z M51.2,35.2c-1.1-0.2-2.1-0.4-3.2-0.4c0-0.2,0-0.2,0-0.4C49.3,34.6,50.4,34.8,51.2,35.2z M51.4,33.3
	c-0.2,0-0.4,0-0.6-0.2c-0.2,0-0.2,0-0.4,0c-0.4-0.2-0.8-0.2-1.3-0.4C50,32.9,50.6,33.1,51.4,33.3z M39.4,69.6
	c0.2-0.2,0.4-0.4,0.6-0.6c-0.2,0.4-0.2,0.8-0.4,1.3C39.6,69.8,39.4,69.8,39.4,69.6z M10.7,55.4c-0.2,0-0.2,0.4-0.2,0.6
	c-0.2,0.2-0.4,0.6-0.6,0.8c-0.2,0.2-0.4,0.4-0.6,0.8c1.3-2.3,2.7-4.6,4-7V51C12.4,52.5,11.8,54,10.7,55.4z M7.8,60.1
	c0.2-0.4,0.4-0.8,0.6-1.3c0,0.4,0,0.6,0,0.8c0,0.2,0,0.2,0,0.4C8.2,60.1,8,60.1,7.8,60.1z M61.3,35.4c-3.8-1.5-8.2-3.2-12.2-3.8
	c0-0.2,0-0.2,0-0.4c0-0.4,0-0.8,0.2-1.3c0-0.6,0.2-1.3,0.2-1.9c0.8-7.2,2.3-14.3,2.5-21.7c0-0.6-0.6-0.8-1.1-0.4
	c-0.2,0.2-0.2,0.2-0.4,0.4c-0.2,0-0.4,0-0.6,0.2c-0.2,0.4-0.8,0.8-1.3,1.3c0,0.4-0.2,0.4-0.2,0.6c-0.2,0-0.2,0-0.4,0
	c-5.5,4.9-11.4,9.1-16.7,14.1c-1.1,0-2.1,0-3.4-0.2c-3-0.2-5.9-0.8-8.7-1.1c-2.7,0-5.5-0.8-8-1.3c-0.4,0-1.7-0.2-2.3,0
	c-0.4,0-0.6,0-0.8,0.4c0,0,0,0,0,0.2c0,0.2,0,0.4,0.2,0.6v0.2c0.2,0.2,0.2,0.4,0.2,0.6c0,0.2,0.2,0.4,0.4,0.6c0,0,0,0,0.2,0.2
	c0.8,2.7,2.3,5.3,3.6,7.8c0.8,1.9,1.7,3.8,2.5,5.9c0.6,1.7,1.9,3.2,2.3,4.9c0,0,0,0,0,0.2c-3.8,6.1-7.6,12.7-11.4,19
	c-0.2,0.2,0,0.4,0,0.6c0,0.2,0,0.2,0.2,0.4c0.4-0.2,1.1-0.4,1.5-0.4c2.3-0.4,4.6-1.3,7-2.1c0.8-0.2,1.7-0.4,2.5-0.8
	c0.8-0.2,1.7-0.6,2.5-0.8c2.5-0.6,5.1-1.3,7.8-1.9c1.3,2.3,3.8,4.6,5.3,6.5c2.1,2.7,3.6,6.5,6.1,8.9c0.2,0.2,0.4,0.2,0.6,0.2
	s0.6,0,0.6-0.2c1.7-4,2.1-8.7,3.8-12.7c1.3-3.2,2.3-6.8,3.2-10.1c4.6-3.8,9.3-7.8,13.9-11.6c0.2,0,0.2-0.2,0.2-0.2
	C61.8,36.2,61.8,35.6,61.3,35.4z"/>
</svg>
